# Blender v2.92.0 OBJ File: ''
# www.blender.org
mtllib house1.mtl
o Cube
v 4.491547 -2.477678 -5.055025
v 4.491547 -2.477678 5.084213
v -4.649270 -2.477678 -5.055025
v -4.649270 -2.477678 5.084213
v -1.125345 0.765481 -0.565579
v 3.253817 2.477843 -3.817295
v 4.491547 1.240113 -5.055025
v 3.253817 2.477692 3.826475
v 4.491547 1.240014 5.084213
v -3.402670 2.477706 -3.817295
v -4.649270 1.240212 -5.055025
v -3.348843 2.477024 3.720590
v -4.595729 1.239340 4.975095
v 0.855271 2.477458 3.308948
v 1.056991 3.311419 3.184697
v 0.855271 2.477482 2.084835
v 1.056991 3.311368 2.223297
v 2.228798 2.477597 3.308948
v 2.167805 3.311114 3.184697
v 2.228798 2.477622 2.084835
v 2.167805 3.311062 2.223297
v 0.855160 3.571668 3.308969
v 0.855160 3.571692 2.084857
v 2.228687 3.571832 2.084857
v 2.228687 3.571807 3.308969
v -4.684913 -2.461671 -1.642694
v -4.802418 -2.458083 -1.554446
v -4.647900 0.085267 -1.642694
v -4.767951 0.019298 -1.554446
v -4.677991 -2.461771 -0.345990
v -4.796432 -2.458174 -0.432965
v -4.640978 0.085166 -0.345990
v -4.761965 0.019206 -0.432965
v -4.804159 -2.459931 -1.642057
v -4.767146 0.087007 -1.642057
v -4.760224 0.086906 -0.345353
v -4.797237 -2.460032 -0.345353
v -4.649270 -0.741791 -4.475348
v -4.554990 -0.647887 -4.278639
v -4.649270 0.794438 -4.475348
v -4.554990 0.676398 -4.278639
v -4.649271 -0.741791 -1.990498
v -4.554990 -0.647887 -2.131872
v -4.649271 0.794438 -1.990498
v -4.554990 0.676398 -2.131872
v -4.690480 -0.741791 -4.475348
v -4.690480 0.794438 -4.475348
v -4.690480 0.794438 -1.990498
v -4.690480 -0.741791 -1.990498
v -4.669441 -0.731751 -3.261025
v -4.702562 -0.749640 -3.260848
v -4.645332 0.750138 -3.261025
v -4.678453 0.797459 -3.260848
v -4.668942 -0.731758 -3.167464
v -4.702063 -0.749647 -3.167287
v -4.644833 0.750132 -3.167464
v -4.677954 0.797452 -3.167287
vt 0.375000 0.750000
vt 0.562561 1.000000
vt 0.375000 1.000000
vt 0.562561 0.000000
vt 0.375000 0.250000
vt 0.375000 0.000000
vt 0.375000 0.500000
vt 0.125000 0.750000
vt 0.125000 0.500000
vt 0.658909 0.530623
vt 0.840936 0.719139
vt 0.659062 0.719375
vt 0.562553 0.750000
vt 0.875000 0.750000
vt 0.625004 0.750000
vt 0.562558 0.500000
vt 0.875000 0.500003
vt 0.841091 0.530858
vt 0.625000 0.500000
vt 0.625000 0.000000
vt 0.375000 0.250000
vt 0.375000 0.000000
vt 0.625000 0.250000
vt 0.375000 0.500000
vt 0.625000 0.750000
vt 0.375000 0.750000
vt 0.625000 1.000000
vt 0.375000 1.000000
vt 0.125000 0.750000
vt 0.125000 0.500000
vt 0.851091 0.526827
vt 0.648909 0.723173
vt 0.648909 0.526827
vt 0.875000 0.750000
vt 0.851091 0.723173
vt 0.625000 0.500000
vt 0.875000 0.500000
vt 0.625000 0.000000
vt 0.375000 0.250000
vt 0.375000 0.000000
vt 0.625000 0.250000
vt 0.375000 0.500000
vt 0.625000 0.750000
vt 0.375000 0.750000
vt 0.625000 1.000000
vt 0.375000 1.000000
vt 0.125000 0.750000
vt 0.125000 0.500000
vt 0.641891 0.508599
vt 0.858109 0.741401
vt 0.641891 0.741401
vt 0.858109 0.508599
vt 0.875000 0.750000
vt 0.875000 0.500000
vt 0.625000 0.500000
vt 0.625000 0.000000
vt 0.375000 0.250000
vt 0.375000 0.000000
vt 0.625000 0.250000
vt 0.375000 0.500000
vt 0.625000 0.500000
vt 0.375000 0.750000
vt 0.625000 1.000000
vt 0.375000 1.000000
vt 0.125000 0.750000
vt 0.125000 0.500000
vt 0.864338 0.517245
vt 0.635662 0.732754
vt 0.635662 0.517246
vt 0.875000 0.750000
vt 0.864338 0.732754
vt 0.875000 0.500000
vt 0.625000 0.750000
vt 0.625000 0.000000
vt 0.375000 0.250000
vt 0.375000 0.000000
vt 0.625000 0.500000
vt 0.375000 0.500000
vt 0.625000 0.750000
vt 0.375000 0.750000
vt 0.625000 1.000000
vt 0.375000 1.000000
vt 0.125000 0.500000
vt 0.125000 0.750000
vt 0.875000 0.500000
vt 0.562563 0.250000
vt 0.625000 0.250000
vt 0.875000 0.750000
vn 0.0000 0.0293 0.9996
vn -0.9999 0.0144 0.0000
vn 0.0000 -1.0000 0.0000
vn -0.0001 1.0000 0.0000
vn 1.0000 0.0000 0.0000
vn -0.0085 0.7085 0.7056
vn 0.7071 0.7071 0.0000
vn -0.7025 0.7116 0.0038
vn 0.0000 0.7072 -0.7070
vn 0.0000 0.0000 -1.0000
vn -1.0000 -0.0001 -0.0000
vn 1.0000 0.0001 0.0000
vn 0.0000 -0.0000 1.0000
vn 0.0001 -1.0000 -0.0000
vn 0.0003 1.0000 -0.0001
vn 0.7902 0.6128 -0.0000
vn -0.0000 0.4695 0.8829
vn -0.9738 0.2274 0.0000
vn 0.0001 0.4303 -0.9027
vn -0.0053 0.0001 -1.0000
vn 0.0146 0.9999 -0.0000
vn 0.0053 -0.0001 1.0000
vn -0.0146 -0.9999 0.0000
vn 0.9999 -0.0145 -0.0053
vn -0.9999 0.0139 0.0053
vn -0.9997 0.0139 0.0196
vn -0.9998 0.0188 0.0053
vn -0.9999 0.0145 0.0086
vn -0.8240 0.5666 0.0044
vn 0.0000 1.0000 0.0000
vn -1.0000 0.0000 -0.0000
vn -0.8235 0.0000 0.5673
vn -0.6569 -0.7540 -0.0000
vn -0.7220 0.0000 -0.6919
vn -0.5696 0.8219 -0.0000
vn -0.0054 0.0001 -1.0000
vn 0.8192 0.5734 -0.0043
vn 0.0054 -0.0001 1.0000
vn 0.4752 -0.8799 -0.0026
vn 0.9999 -0.0163 -0.0053
vn -0.9999 0.0156 0.0053
vn -0.0120 0.0000 0.9999
vn -1.0000 0.0000 0.0053
vn -0.0000 1.0000 0.0001
vn -0.0112 0.7174 0.6966
vn -0.7071 0.7071 0.0051
vn -0.0000 0.7071 -0.7071
vn 0.7903 0.6127 0.0000
vn 0.0001 0.4689 0.8833
vn -0.0000 0.4309 -0.9024
vn -0.9999 0.0145 0.0020
vn -0.9999 0.0139 -0.0089
vn -0.8243 0.5661 0.0044
vn -0.8235 0.0000 0.5672
vn -0.0052 0.0001 -1.0000
vn 0.0052 -0.0001 1.0000
usemtl Material
s off
f 2/1/1 13/2/1 4/3/1
f 13/4/2 3/5/2 4/6/2
f 1/7/3 4/8/3 3/9/3
f 6/10/4 12/11/4 8/12/4
f 1/7/5 9/13/5 2/1/5
f 8/12/6 13/14/6 9/15/6
f 8/12/7 7/16/7 6/10/7
f 12/11/8 11/17/8 13/14/8
f 10/18/9 7/19/9 11/17/9
f 3/5/10 7/16/10 1/7/10
f 22/20/11 16/21/11 14/22/11
f 23/23/10 20/24/10 16/21/10
f 20/24/12 25/25/12 18/26/12
f 18/26/13 22/27/13 14/28/13
f 20/24/14 14/29/14 16/30/14
f 17/31/15 19/32/15 21/33/15
f 17/31/16 22/34/16 15/35/16
f 17/31/17 24/36/17 23/37/17
f 21/33/18 25/25/18 24/36/18
f 15/35/19 25/25/19 19/32/19
f 34/38/20 28/39/20 26/40/20
f 35/41/21 32/42/21 28/39/21
f 32/42/22 37/43/22 30/44/22
f 30/44/23 34/45/23 26/46/23
f 32/42/24 26/47/24 28/48/24
f 33/49/25 27/50/25 31/51/25
f 29/52/26 34/53/26 27/50/26
f 33/49/27 35/54/27 29/52/27
f 33/49/28 37/43/28 36/55/28
f 27/50/29 37/43/29 31/51/29
f 46/56/10 40/57/10 38/58/10
f 47/59/30 44/60/30 40/57/30
f 48/61/13 42/62/13 44/60/13
f 42/62/3 46/63/3 38/64/3
f 44/60/5 38/65/5 40/66/5
f 41/67/31 43/68/31 45/69/31
f 41/67/32 46/70/32 39/71/32
f 41/67/33 48/61/33 47/72/33
f 45/69/34 49/73/34 48/61/34
f 39/71/35 49/73/35 43/68/35
f 51/74/36 52/75/36 50/76/36
f 52/75/37 57/77/37 56/78/37
f 56/78/38 55/79/38 54/80/38
f 54/80/39 51/81/39 50/82/39
f 52/83/40 54/80/40 50/84/40
f 53/85/41 55/79/41 57/77/41
f 2/1/42 9/13/42 13/2/42
f 13/4/43 11/86/43 3/5/43
f 1/7/3 2/1/3 4/8/3
f 6/10/44 10/18/44 12/11/44
f 1/7/5 7/16/5 9/13/5
f 8/12/45 12/11/45 13/14/45
f 8/12/7 9/13/7 7/16/7
f 12/11/46 10/18/46 11/17/46
f 10/18/47 6/10/47 7/19/47
f 3/5/10 11/86/10 7/16/10
f 22/20/11 23/23/11 16/21/11
f 23/23/10 24/36/10 20/24/10
f 20/24/12 24/36/12 25/25/12
f 18/26/13 25/25/13 22/27/13
f 20/24/14 18/26/14 14/29/14
f 17/31/15 15/35/15 19/32/15
f 17/31/48 23/37/48 22/34/48
f 17/31/49 21/33/49 24/36/49
f 21/33/18 19/32/18 25/25/18
f 15/35/50 22/34/50 25/25/50
f 34/38/20 35/41/20 28/39/20
f 35/41/21 36/55/21 32/42/21
f 32/42/22 36/55/22 37/43/22
f 30/44/23 37/43/23 34/45/23
f 32/42/24 30/44/24 26/47/24
f 33/49/25 29/52/25 27/50/25
f 29/52/51 35/54/51 34/53/51
f 33/49/27 36/55/27 35/54/27
f 33/49/52 31/51/52 37/43/52
f 27/50/53 34/53/53 37/43/53
f 46/56/10 47/59/10 40/57/10
f 47/59/30 48/61/30 44/60/30
f 48/61/13 49/73/13 42/62/13
f 42/62/3 49/73/3 46/63/3
f 44/60/5 42/62/5 38/65/5
f 41/67/31 39/71/31 43/68/31
f 41/67/54 47/72/54 46/70/54
f 41/67/33 45/69/33 48/61/33
f 45/69/34 43/68/34 49/73/34
f 39/71/35 46/70/35 49/73/35
f 51/74/55 53/87/55 52/75/55
f 52/75/37 53/87/37 57/77/37
f 56/78/56 57/77/56 55/79/56
f 54/80/39 55/79/39 51/81/39
f 52/83/40 56/78/40 54/80/40
f 53/85/41 51/88/41 55/79/41
l 10 5
